Coordinates
version=1
nRows=13
nColumns=22
inDegrees=yes

Units are S.I. units (second, meters, Newtons, ...)
If the header above contains a line with 'inDegrees', this indicates whether rotational values are in degrees (yes) or radians (no).

endheader
time	pelvis_tilt	pelvis_list	pelvis_rotation	pelvis_tx	pelvis_ty	pelvis_tz	hip_flexion_r	hip_adduction_r	hip_rotation_r	knee_angle_r	ankle_angle_r	subtalar_angle_r	hip_flexion_l	hip_adduction_l	hip_rotation_l	knee_angle_l	ankle_angle_l	subtalar_angle_l	lumbar_extension	lumbar_bending	lumbar_rotation
      3.20000000	     -1.60482455	      0.80592326	     -5.67640590	      0.22834998	      0.90404480	      0.01015176	     -3.62678995	      0.71805911	      0.21615162	    -39.72819895	      1.41298221	      3.19874143	     29.61858278	     -0.02068961	    -15.75011641	    -28.96173502	      0.95485333	    -10.50800461	     -8.18715806	     -9.29058983	      6.65495540
      3.21000000	     -1.41545112	      0.49353260	     -6.06202825	      0.21749119	      0.90320365	      0.01153061	     -4.00229901	      1.27100507	      1.26987241	    -38.71704272	      3.75283260	      3.81648205	     30.05907533	     -0.59647542	    -15.72267222	    -28.81340771	     -0.01859605	    -10.33866633	     -8.85526199	     -8.83713907	      6.63419510
      3.22000000	     -1.23280137	      0.17964685	     -6.37947917	      0.20654392	      0.90235114	      0.01273710	     -4.37779131	      1.81244500	      2.25637579	    -37.68075677	      6.17910363	      4.29360848	     30.51506636	     -1.14880682	    -15.66437986	    -28.65582504	     -1.04347299	    -10.24886939	     -9.53314569	     -8.36100864	      6.52529621
      3.23000000	     -1.01648279	     -0.13348985	     -6.66288454	      0.19548807	      0.90164366	      0.01380532	     -4.76254343	      2.33247133	      3.18766792	    -36.65056004	      8.50621403	      4.99530526	     30.90144704	     -1.66367312	    -15.54042325	    -28.40595081	     -2.22234674	     -9.98725698	    -10.27132910	     -7.87669816	      6.44427935
      3.24000000	     -0.81466175	     -0.44284398	     -6.85201343	      0.18439306	      0.90098063	      0.01465355	     -5.10645055	      2.83030345	      3.92545065	    -35.62700919	     10.74983180	      5.42979430	     31.31674388	     -2.14313365	    -15.41196978	    -28.14832204	     -3.50232532	     -9.77556029	    -11.01261198	     -7.37200418	      6.27557231
      3.25000000	     -0.61217390	     -0.74635429	     -6.95980157	      0.17328657	      0.90045446	      0.01532681	     -5.40755897	      3.30467293	      4.44788295	    -34.62704452	     12.81356971	      5.68338361	     31.72017934	     -2.58212761	    -15.27570671	    -27.83792838	     -4.94093066	     -9.51984026	    -11.76827652	     -6.86079905	      6.07287117
      3.26000000	     -0.41563556	     -1.04058547	     -6.98599547	      0.16217912	      0.90008761	      0.01580397	     -5.64284577	      3.75806681	      4.75059017	    -33.67454934	     14.66238344	      5.70371917	     32.11442401	     -2.97320104	    -15.13808409	    -27.46090462	     -6.55903579	     -9.22678998	    -12.53229981	     -6.34215946	      5.84748682
      3.27000000	     -0.22453234	     -1.33106994	     -6.96791217	      0.15105497	      0.89991596	      0.01619892	     -5.79103154	      4.21352094	      4.90614236	    -32.80807627	     16.27532171	      5.43599415	     32.46571282	     -3.33467846	    -15.00058351	    -26.96137260	     -8.33400587	     -8.77430879	    -13.30469516	     -5.82060193	      5.61318671
      3.28000000	     -0.05284454	     -1.58720853	     -6.87327590	      0.14000630	      0.89992051	      0.01643270	     -5.84677581	      4.62841133	      4.84851600	    -32.01379264	     17.67217735	      4.95454824	     32.78810575	     -3.61710683	    -14.85970335	    -26.33176738	    -10.27408540	     -8.33304190	    -14.05512225	     -5.32374627	      5.35558746
      3.29000000	      0.09229963	     -1.81987253	     -6.73416126	      0.12907570	      0.90010514	      0.01661154	     -5.82182071	      5.02734571	      4.67823147	    -31.26662692	     18.84436458	      4.24705216	     33.07859378	     -3.85863981	    -14.75128097	    -25.57659566	    -12.33959080	     -7.75180903	    -14.76458435	     -4.84876698	      5.08775713
      3.30000000	      0.20836315	     -2.01359023	     -6.55171973	      0.11826440	      0.90045200	      0.01669297	     -5.69635885	      5.39143107	      4.43023564	    -30.60222380	     19.79930697	      3.42297812	     33.32092129	     -4.02244694	    -14.61247912	    -24.66105353	    -14.48909151	     -7.10459882	    -15.42809414	     -4.40558718	      4.82034105
      3.31000000	      0.29455531	     -2.15965490	     -6.33754046	      0.10759553	      0.90094928	      0.01669640	     -5.46829234	      5.70673970	      4.13333719	    -30.03045520	     20.56450978	      2.55703131	     33.50110822	     -4.09544043	    -14.39344754	    -23.57647229	    -16.65304016	     -6.42607819	    -16.03962596	     -4.00763402	      4.53436489
      3.32000000	      0.34618584	     -2.26642824	     -6.09921279	      0.09713994	      0.90157966	      0.01662764	     -5.16355115	      5.97920938	      3.83101869	    -29.50595161	     21.14380896	      1.70218605	     33.62421137	     -4.09146435	    -14.07206925	    -22.36367281	    -18.72438281	     -5.71260435	    -16.58023908	     -3.64244169	      4.24352505
